STARTFONT 2.3
FONT -FontForge-Zen Tokyo Zoo-Book-R-Normal--10-100-72-72-P-47-ISO10646-1
SIZE 10 72 72  2
FONTBOUNDINGBOX 13 14 -1 -3
COMMENT "Generated by fontforge, http://fontforge.sourceforge.net"
COMMENT "Copyright 2021 The Zen Tokyo Zoo Project Authors (https://github.com/googlefonts/zen-tokyo-zoo)"
STARTPROPERTIES 40
FOUNDRY "FontForge"
FAMILY_NAME "Zen Tokyo Zoo"
WEIGHT_NAME "Book"
SLANT "R"
SETWIDTH_NAME "Normal"
ADD_STYLE_NAME ""
PIXEL_SIZE 10
POINT_SIZE 100
RESOLUTION_X 72
RESOLUTION_Y 72
SPACING "P"
AVERAGE_WIDTH 47
CHARSET_REGISTRY "ISO10646"
CHARSET_ENCODING "1"
FONTNAME_REGISTRY ""
CHARSET_COLLECTIONS "ISO10646-1"
BITS_PER_PIXEL 2
FONT_NAME "ZenTokyoZoo-Regular"
FACE_NAME "Zen Tokyo Zoo Regular"
COPYRIGHT "Copyright 2021 The Zen Tokyo Zoo Project Authors (https://github.com/googlefonts/zen-tokyo-zoo)"
FONT_VERSION "1.002; ttfautohint (v1.8.3)"
FONT_ASCENT 8
FONT_DESCENT 2
UNDERLINE_POSITION -1
UNDERLINE_THICKNESS 1
X_HEIGHT 3
CAP_HEIGHT 7
RAW_ASCENT 800
RAW_DESCENT 200
NORM_SPACE 3
RELATIVE_WEIGHT 40
RELATIVE_SETWIDTH 50
SUPERSCRIPT_X 0
SUPERSCRIPT_Y 3
SUPERSCRIPT_SIZE 6
SUBSCRIPT_X 0
SUBSCRIPT_Y 0
SUBSCRIPT_SIZE 6
AVG_LOWERCASE_WIDTH 41
AVG_UPPERCASE_WIDTH 76
ENDPROPERTIES
CHARS 338
STARTCHAR CR
ENCODING 13
SWIDTH 600 0
DWIDTH 6 0
BBX 1 1 0 0
BITMAP
00
ENDCHAR
STARTCHAR space
ENCODING 32
SWIDTH 280 0
DWIDTH 3 0
BBX 1 1 0 0
BITMAP
00
ENDCHAR
STARTCHAR exclam
ENCODING 33
SWIDTH 196 0
DWIDTH 2 0
BBX 2 4 0 0
BITMAP
50
50
50
50
ENDCHAR
STARTCHAR quotedbl
ENCODING 34
SWIDTH 302 0
DWIDTH 3 0
BBX 3 1 0 3
BITMAP
54
ENDCHAR
STARTCHAR numbersign
ENCODING 35
SWIDTH 513 0
DWIDTH 5 0
BBX 4 4 1 0
BITMAP
55
55
54
54
ENDCHAR
STARTCHAR dollar
ENCODING 36
SWIDTH 379 0
DWIDTH 4 0
BBX 4 5 0 0
BITMAP
14
50
54
15
14
ENDCHAR
STARTCHAR percent
ENCODING 37
SWIDTH 493 0
DWIDTH 5 0
BBX 5 4 0 0
BITMAP
6500
5500
1500
1640
ENDCHAR
STARTCHAR ampersand
ENCODING 38
SWIDTH 487 0
DWIDTH 5 0
BBX 5 4 0 0
BITMAP
1900
1500
5540
6500
ENDCHAR
STARTCHAR quotesingle
ENCODING 39
SWIDTH 146 0
DWIDTH 1 0
BBX 2 1 0 3
BITMAP
50
ENDCHAR
STARTCHAR parenleft
ENCODING 40
SWIDTH 210 0
DWIDTH 2 0
BBX 2 5 0 0
BITMAP
10
50
50
50
50
ENDCHAR
STARTCHAR parenright
ENCODING 41
SWIDTH 210 0
DWIDTH 2 0
BBX 2 5 0 0
BITMAP
40
50
50
50
50
ENDCHAR
STARTCHAR asterisk
ENCODING 42
SWIDTH 358 0
DWIDTH 4 0
BBX 2 2 1 2
BITMAP
50
50
ENDCHAR
STARTCHAR plus
ENCODING 43
SWIDTH 394 0
DWIDTH 4 0
BBX 2 3 1 1
BITMAP
50
50
50
ENDCHAR
STARTCHAR comma
ENCODING 44
SWIDTH 216 0
DWIDTH 2 0
BBX 2 1 0 0
BITMAP
50
ENDCHAR
STARTCHAR hyphen
ENCODING 45
SWIDTH 326 0
DWIDTH 3 0
BBX 2 2 1 1
BITMAP
50
50
ENDCHAR
STARTCHAR period
ENCODING 46
SWIDTH 176 0
DWIDTH 2 0
BBX 2 1 0 0
BITMAP
50
ENDCHAR
STARTCHAR slash
ENCODING 47
SWIDTH 298 0
DWIDTH 3 0
BBX 3 4 0 0
BITMAP
14
14
50
50
ENDCHAR
STARTCHAR zero
ENCODING 48
SWIDTH 306 0
DWIDTH 3 0
BBX 3 4 0 0
BITMAP
64
54
54
64
ENDCHAR
STARTCHAR one
ENCODING 49
SWIDTH 306 0
DWIDTH 3 0
BBX 3 4 0 0
BITMAP
54
14
14
14
ENDCHAR
STARTCHAR two
ENCODING 50
SWIDTH 299 0
DWIDTH 3 0
BBX 3 4 0 0
BITMAP
64
14
50
64
ENDCHAR
STARTCHAR three
ENCODING 51
SWIDTH 324 0
DWIDTH 3 0
BBX 3 4 0 0
BITMAP
64
04
14
64
ENDCHAR
STARTCHAR four
ENCODING 52
SWIDTH 339 0
DWIDTH 3 0
BBX 3 4 0 0
BITMAP
14
50
58
58
ENDCHAR
STARTCHAR five
ENCODING 53
SWIDTH 363 0
DWIDTH 4 0
BBX 3 4 0 0
BITMAP
28
54
04
28
ENDCHAR
STARTCHAR six
ENCODING 54
SWIDTH 306 0
DWIDTH 3 0
BBX 3 4 0 0
BITMAP
64
54
54
64
ENDCHAR
STARTCHAR seven
ENCODING 55
SWIDTH 298 0
DWIDTH 3 0
BBX 3 4 0 0
BITMAP
64
14
14
20
ENDCHAR
STARTCHAR eight
ENCODING 56
SWIDTH 306 0
DWIDTH 3 0
BBX 3 4 0 0
BITMAP
64
54
54
64
ENDCHAR
STARTCHAR nine
ENCODING 57
SWIDTH 306 0
DWIDTH 3 0
BBX 3 4 0 0
BITMAP
64
54
54
64
ENDCHAR
STARTCHAR colon
ENCODING 58
SWIDTH 176 0
DWIDTH 2 0
BBX 2 2 0 0
BITMAP
50
50
ENDCHAR
STARTCHAR semicolon
ENCODING 59
SWIDTH 217 0
DWIDTH 2 0
BBX 2 3 0 -1
BITMAP
10
00
50
ENDCHAR
STARTCHAR less
ENCODING 60
SWIDTH 450 0
DWIDTH 5 0
BBX 3 4 1 0
BITMAP
14
54
54
14
ENDCHAR
STARTCHAR equal
ENCODING 61
SWIDTH 344 0
DWIDTH 3 0
BBX 2 3 1 0
BITMAP
50
50
50
ENDCHAR
STARTCHAR greater
ENCODING 62
SWIDTH 450 0
DWIDTH 5 0
BBX 4 4 0 0
BITMAP
50
15
14
50
ENDCHAR
STARTCHAR question
ENCODING 63
SWIDTH 346 0
DWIDTH 3 0
BBX 3 4 0 0
BITMAP
64
14
14
10
ENDCHAR
STARTCHAR at
ENCODING 64
SWIDTH 490 0
DWIDTH 5 0
BBX 5 4 0 0
BITMAP
1500
5540
5500
1500
ENDCHAR
STARTCHAR A
ENCODING 65
SWIDTH 798 0
DWIDTH 8 0
BBX 8 8 0 0
BITMAP
0240
0550
0650
0550
1554
1554
5555
6005
ENDCHAR
STARTCHAR B
ENCODING 66
SWIDTH 784 0
DWIDTH 8 0
BBX 8 8 0 0
BITMAP
56A4
5558
5014
5554
5555
5015
5555
56A4
ENDCHAR
STARTCHAR C
ENCODING 67
SWIDTH 776 0
DWIDTH 8 0
BBX 7 8 0 0
BITMAP
06A4
2554
5400
6000
6000
5400
2554
06A4
ENDCHAR
STARTCHAR D
ENCODING 68
SWIDTH 806 0
DWIDTH 8 0
BBX 8 8 0 0
BITMAP
5690
5558
5015
5009
5009
5015
5558
5690
ENDCHAR
STARTCHAR E
ENCODING 69
SWIDTH 677 0
DWIDTH 7 0
BBX 7 8 0 0
BITMAP
56A4
5550
5000
5550
56A0
5000
5550
56A4
ENDCHAR
STARTCHAR F
ENCODING 70
SWIDTH 677 0
DWIDTH 7 0
BBX 7 8 0 0
BITMAP
56A4
5550
5000
5550
56A0
5000
5000
5000
ENDCHAR
STARTCHAR G
ENCODING 71
SWIDTH 872 0
DWIDTH 9 0
BBX 9 8 0 0
BITMAP
06A400
255500
540400
601500
601500
541540
255600
06A400
ENDCHAR
STARTCHAR H
ENCODING 72
SWIDTH 781 0
DWIDTH 8 0
BBX 8 8 0 0
BITMAP
5015
5015
5015
5555
5695
5015
5015
5015
ENDCHAR
STARTCHAR I
ENCODING 73
SWIDTH 262 0
DWIDTH 3 0
BBX 2 8 0 0
BITMAP
50
50
50
50
50
50
50
50
ENDCHAR
STARTCHAR J
ENCODING 74
SWIDTH 674 0
DWIDTH 7 0
BBX 7 8 0 0
BITMAP
0054
0054
0054
0054
0054
6054
5560
1A80
ENDCHAR
STARTCHAR K
ENCODING 75
SWIDTH 739 0
DWIDTH 7 0
BBX 7 8 0 0
BITMAP
5054
5050
5150
5540
5540
5150
5050
5054
ENDCHAR
STARTCHAR L
ENCODING 76
SWIDTH 604 0
DWIDTH 6 0
BBX 6 8 0 0
BITMAP
5000
5000
5000
5000
5000
5000
5550
56A0
ENDCHAR
STARTCHAR M
ENCODING 77
SWIDTH 909 0
DWIDTH 9 0
BBX 9 8 0 0
BITMAP
540240
540640
551640
555640
515240
504240
500240
500240
ENDCHAR
STARTCHAR N
ENCODING 78
SWIDTH 796 0
DWIDTH 8 0
BBX 8 8 0 0
BITMAP
5405
5505
5505
5545
5155
5055
5055
5015
ENDCHAR
STARTCHAR O
ENCODING 79
SWIDTH 894 0
DWIDTH 9 0
BBX 9 8 0 0
BITMAP
06A400
255600
540540
600240
600240
540540
255600
06A400
ENDCHAR
STARTCHAR P
ENCODING 80
SWIDTH 743 0
DWIDTH 7 0
BBX 7 8 0 0
BITMAP
56A4
5558
5014
5554
5550
5000
5000
5000
ENDCHAR
STARTCHAR Q
ENCODING 81
SWIDTH 911 0
DWIDTH 9 0
BBX 9 8 0 0
BITMAP
06A400
255600
540540
600240
600640
541540
255540
06A500
ENDCHAR
STARTCHAR R
ENCODING 82
SWIDTH 745 0
DWIDTH 7 0
BBX 7 8 0 0
BITMAP
56A4
5558
5014
5554
5550
5060
5054
5014
ENDCHAR
STARTCHAR S
ENCODING 83
SWIDTH 660 0
DWIDTH 7 0
BBX 7 8 0 0
BITMAP
1A80
5560
6000
5940
0590
0054
5560
1A90
ENDCHAR
STARTCHAR T
ENCODING 84
SWIDTH 641 0
DWIDTH 6 0
BBX 7 8 0 0
BITMAP
AAA4
5550
0600
0600
0600
0600
0600
0600
ENDCHAR
STARTCHAR U
ENCODING 85
SWIDTH 702 0
DWIDTH 7 0
BBX 7 8 0 0
BITMAP
5024
5024
5024
5024
5024
5454
2560
1A90
ENDCHAR
STARTCHAR V
ENCODING 86
SWIDTH 758 0
DWIDTH 8 0
BBX 8 8 0 0
BITMAP
6015
5414
2454
1854
1550
0950
0650
0540
ENDCHAR
STARTCHAR W
ENCODING 87
SWIDTH 972 0
DWIDTH 10 0
BBX 10 8 0 0
BITMAP
609150
545140
555180
259640
195540
155900
055500
091500
ENDCHAR
STARTCHAR X
ENCODING 88
SWIDTH 712 0
DWIDTH 7 0
BBX 7 8 0 0
BITMAP
5454
1550
1550
0540
0540
1550
1460
5454
ENDCHAR
STARTCHAR Y
ENCODING 89
SWIDTH 769 0
DWIDTH 8 0
BBX 8 8 0 0
BITMAP
5415
1454
1550
0550
0140
0240
0240
0240
ENDCHAR
STARTCHAR Z
ENCODING 90
SWIDTH 708 0
DWIDTH 7 0
BBX 7 8 0 0
BITMAP
2A54
1550
0150
0140
0540
1500
1550
56A0
ENDCHAR
STARTCHAR bracketleft
ENCODING 91
SWIDTH 320 0
DWIDTH 3 0
BBX 3 5 0 -1
BITMAP
54
50
50
54
54
ENDCHAR
STARTCHAR backslash
ENCODING 92
SWIDTH 298 0
DWIDTH 3 0
BBX 3 4 0 0
BITMAP
50
50
14
14
ENDCHAR
STARTCHAR bracketright
ENCODING 93
SWIDTH 320 0
DWIDTH 3 0
BBX 2 5 1 -1
BITMAP
50
50
50
50
50
ENDCHAR
STARTCHAR asciicircum
ENCODING 94
SWIDTH 309 0
DWIDTH 3 0
BBX 3 2 0 2
BITMAP
10
54
ENDCHAR
STARTCHAR underscore
ENCODING 95
SWIDTH 472 0
DWIDTH 5 0
BBX 3 2 1 0
BITMAP
54
54
ENDCHAR
STARTCHAR grave
ENCODING 96
SWIDTH 195 0
DWIDTH 2 0
BBX 1 1 0 5
BITMAP
40
ENDCHAR
STARTCHAR a
ENCODING 97
SWIDTH 414 0
DWIDTH 4 0
BBX 4 4 0 0
BITMAP
18
24
55
55
ENDCHAR
STARTCHAR b
ENCODING 98
SWIDTH 423 0
DWIDTH 4 0
BBX 4 4 0 0
BITMAP
69
56
55
69
ENDCHAR
STARTCHAR c
ENCODING 99
SWIDTH 446 0
DWIDTH 4 0
BBX 4 4 0 0
BITMAP
29
50
50
29
ENDCHAR
STARTCHAR d
ENCODING 100
SWIDTH 450 0
DWIDTH 5 0
BBX 4 4 0 0
BITMAP
69
52
52
69
ENDCHAR
STARTCHAR e
ENCODING 101
SWIDTH 363 0
DWIDTH 4 0
BBX 4 4 0 0
BITMAP
69
54
54
69
ENDCHAR
STARTCHAR f
ENCODING 102
SWIDTH 365 0
DWIDTH 4 0
BBX 4 4 0 0
BITMAP
69
54
54
50
ENDCHAR
STARTCHAR g
ENCODING 103
SWIDTH 483 0
DWIDTH 5 0
BBX 5 4 0 0
BITMAP
2900
5100
5140
2900
ENDCHAR
STARTCHAR h
ENCODING 104
SWIDTH 428 0
DWIDTH 4 0
BBX 4 4 0 0
BITMAP
52
56
56
52
ENDCHAR
STARTCHAR i
ENCODING 105
SWIDTH 176 0
DWIDTH 2 0
BBX 2 4 0 0
BITMAP
50
50
50
50
ENDCHAR
STARTCHAR j
ENCODING 106
SWIDTH 390 0
DWIDTH 4 0
BBX 4 4 0 0
BITMAP
05
05
05
68
ENDCHAR
STARTCHAR k
ENCODING 107
SWIDTH 381 0
DWIDTH 4 0
BBX 4 4 0 0
BITMAP
55
64
64
55
ENDCHAR
STARTCHAR l
ENCODING 108
SWIDTH 330 0
DWIDTH 3 0
BBX 3 4 0 0
BITMAP
50
50
50
68
ENDCHAR
STARTCHAR m
ENCODING 109
SWIDTH 501 0
DWIDTH 5 0
BBX 5 4 0 0
BITMAP
6240
6A40
5540
5140
ENDCHAR
STARTCHAR n
ENCODING 110
SWIDTH 444 0
DWIDTH 4 0
BBX 4 4 0 0
BITMAP
62
66
56
56
ENDCHAR
STARTCHAR o
ENCODING 111
SWIDTH 494 0
DWIDTH 5 0
BBX 5 4 0 0
BITMAP
2A00
5140
5140
2A00
ENDCHAR
STARTCHAR p
ENCODING 112
SWIDTH 412 0
DWIDTH 4 0
BBX 4 4 0 0
BITMAP
69
55
55
50
ENDCHAR
STARTCHAR q
ENCODING 113
SWIDTH 494 0
DWIDTH 5 0
BBX 5 4 0 0
BITMAP
2A00
5140
5140
2A40
ENDCHAR
STARTCHAR r
ENCODING 114
SWIDTH 412 0
DWIDTH 4 0
BBX 4 4 0 0
BITMAP
69
55
55
55
ENDCHAR
STARTCHAR s
ENCODING 115
SWIDTH 379 0
DWIDTH 4 0
BBX 4 4 0 0
BITMAP
64
54
15
68
ENDCHAR
STARTCHAR t
ENCODING 116
SWIDTH 349 0
DWIDTH 3 0
BBX 4 4 0 0
BITMAP
A9
14
14
14
ENDCHAR
STARTCHAR u
ENCODING 117
SWIDTH 400 0
DWIDTH 4 0
BBX 4 4 0 0
BITMAP
55
55
55
28
ENDCHAR
STARTCHAR v
ENCODING 118
SWIDTH 394 0
DWIDTH 4 0
BBX 4 4 0 0
BITMAP
55
55
28
18
ENDCHAR
STARTCHAR w
ENCODING 119
SWIDTH 521 0
DWIDTH 5 0
BBX 5 4 0 0
BITMAP
5980
5640
6940
2640
ENDCHAR
STARTCHAR x
ENCODING 120
SWIDTH 369 0
DWIDTH 4 0
BBX 4 4 0 0
BITMAP
55
24
24
55
ENDCHAR
STARTCHAR y
ENCODING 121
SWIDTH 422 0
DWIDTH 4 0
BBX 4 4 0 0
BITMAP
55
18
14
14
ENDCHAR
STARTCHAR z
ENCODING 122
SWIDTH 409 0
DWIDTH 4 0
BBX 4 4 0 0
BITMAP
6A
14
14
69
ENDCHAR
STARTCHAR braceleft
ENCODING 123
SWIDTH 443 0
DWIDTH 4 0
BBX 3 5 1 -1
BITMAP
54
50
50
54
54
ENDCHAR
STARTCHAR bar
ENCODING 124
SWIDTH 196 0
DWIDTH 2 0
BBX 2 4 0 0
BITMAP
50
50
50
50
ENDCHAR
STARTCHAR braceright
ENCODING 125
SWIDTH 506 0
DWIDTH 5 0
BBX 3 5 1 -1
BITMAP
54
14
14
54
54
ENDCHAR
STARTCHAR asciitilde
ENCODING 126
SWIDTH 450 0
DWIDTH 5 0
BBX 2 2 2 1
BITMAP
50
50
ENDCHAR
STARTCHAR uni00A0
ENCODING 160
SWIDTH 280 0
DWIDTH 3 0
BBX 1 1 0 0
BITMAP
00
ENDCHAR
STARTCHAR exclamdown
ENCODING 161
SWIDTH 196 0
DWIDTH 2 0
BBX 2 4 0 -1
BITMAP
50
50
50
50
ENDCHAR
STARTCHAR cent
ENCODING 162
SWIDTH 305 0
DWIDTH 3 0
BBX 3 5 0 -1
BITMAP
10
14
80
54
10
ENDCHAR
STARTCHAR sterling
ENCODING 163
SWIDTH 408 0
DWIDTH 4 0
BBX 4 4 0 0
BITMAP
68
54
00
AA
ENDCHAR
STARTCHAR currency
ENCODING 164
SWIDTH 401 0
DWIDTH 4 0
BBX 4 3 0 1
BITMAP
55
14
55
ENDCHAR
STARTCHAR yen
ENCODING 165
SWIDTH 423 0
DWIDTH 4 0
BBX 4 4 0 0
BITMAP
55
18
15
15
ENDCHAR
STARTCHAR brokenbar
ENCODING 166
SWIDTH 196 0
DWIDTH 2 0
BBX 2 4 0 0
BITMAP
50
50
50
50
ENDCHAR
STARTCHAR section
ENCODING 167
SWIDTH 322 0
DWIDTH 3 0
BBX 3 4 0 0
BITMAP
64
54
54
28
ENDCHAR
STARTCHAR dieresis
ENCODING 168
SWIDTH 287 0
DWIDTH 3 0
BBX 3 1 0 5
BITMAP
54
ENDCHAR
STARTCHAR copyright
ENCODING 169
SWIDTH 493 0
DWIDTH 5 0
BBX 5 5 0 0
BITMAP
1500
5540
5040
5540
1500
ENDCHAR
STARTCHAR ordfeminine
ENCODING 170
SWIDTH 331 0
DWIDTH 3 0
BBX 3 2 0 2
BITMAP
24
64
ENDCHAR
STARTCHAR guillemotleft
ENCODING 171
SWIDTH 298 0
DWIDTH 3 0
BBX 3 2 0 1
BITMAP
54
54
ENDCHAR
STARTCHAR logicalnot
ENCODING 172
SWIDTH 420 0
DWIDTH 4 0
BBX 3 3 1 0
BITMAP
54
54
04
ENDCHAR
STARTCHAR uni00AD
ENCODING 173
SWIDTH 326 0
DWIDTH 3 0
BBX 2 2 1 1
BITMAP
50
50
ENDCHAR
STARTCHAR registered
ENCODING 174
SWIDTH 493 0
DWIDTH 5 0
BBX 5 5 0 0
BITMAP
1500
4040
5840
5140
1500
ENDCHAR
STARTCHAR macron
ENCODING 175
SWIDTH 331 0
DWIDTH 3 0
BBX 2 1 1 4
BITMAP
50
ENDCHAR
STARTCHAR degree
ENCODING 176
SWIDTH 298 0
DWIDTH 3 0
BBX 3 3 0 2
BITMAP
10
44
10
ENDCHAR
STARTCHAR plusminus
ENCODING 177
SWIDTH 418 0
DWIDTH 4 0
BBX 4 4 0 0
BITMAP
14
15
14
69
ENDCHAR
STARTCHAR uni00B2
ENCODING 178
SWIDTH 233 0
DWIDTH 2 0
BBX 2 2 0 2
BITMAP
10
50
ENDCHAR
STARTCHAR uni00B3
ENCODING 179
SWIDTH 228 0
DWIDTH 2 0
BBX 1 2 1 2
BITMAP
40
40
ENDCHAR
STARTCHAR acute
ENCODING 180
SWIDTH 195 0
DWIDTH 2 0
BBX 1 1 0 5
BITMAP
40
ENDCHAR
STARTCHAR uni00B5
ENCODING 181
SWIDTH 506 0
DWIDTH 5 0
BBX 5 5 0 -1
BITMAP
5500
5500
5500
5940
5000
ENDCHAR
STARTCHAR paragraph
ENCODING 182
SWIDTH 435 0
DWIDTH 4 0
BBX 4 4 0 0
BITMAP
6A
55
59
09
ENDCHAR
STARTCHAR periodcentered
ENCODING 183
SWIDTH 176 0
DWIDTH 2 0
BBX 2 1 0 1
BITMAP
50
ENDCHAR
STARTCHAR cedilla
ENCODING 184
SWIDTH 261 0
DWIDTH 3 0
BBX 1 2 1 -2
BITMAP
40
40
ENDCHAR
STARTCHAR uni00B9
ENCODING 185
SWIDTH 218 0
DWIDTH 2 0
BBX 2 2 0 2
BITMAP
50
10
ENDCHAR
STARTCHAR ordmasculine
ENCODING 186
SWIDTH 335 0
DWIDTH 3 0
BBX 3 2 0 2
BITMAP
64
64
ENDCHAR
STARTCHAR guillemotright
ENCODING 187
SWIDTH 298 0
DWIDTH 3 0
BBX 3 2 0 1
BITMAP
54
54
ENDCHAR
STARTCHAR onequarter
ENCODING 188
SWIDTH 429 0
DWIDTH 4 0
BBX 4 4 0 0
BITMAP
51
14
15
11
ENDCHAR
STARTCHAR onehalf
ENCODING 189
SWIDTH 437 0
DWIDTH 4 0
BBX 4 4 0 0
BITMAP
55
15
15
11
ENDCHAR
STARTCHAR threequarters
ENCODING 190
SWIDTH 409 0
DWIDTH 4 0
BBX 4 4 0 0
BITMAP
10
54
15
15
ENDCHAR
STARTCHAR questiondown
ENCODING 191
SWIDTH 346 0
DWIDTH 3 0
BBX 3 5 0 -1
BITMAP
10
14
50
54
14
ENDCHAR
STARTCHAR Agrave
ENCODING 192
SWIDTH 798 0
DWIDTH 8 0
BBX 8 10 0 0
BITMAP
0500
0140
0240
0550
0650
0550
1554
1554
5555
6005
ENDCHAR
STARTCHAR Aacute
ENCODING 193
SWIDTH 798 0
DWIDTH 8 0
BBX 8 10 0 0
BITMAP
0050
0040
0240
0550
0650
0550
1554
1554
5555
6005
ENDCHAR
STARTCHAR Acircumflex
ENCODING 194
SWIDTH 798 0
DWIDTH 8 0
BBX 8 10 0 0
BITMAP
0140
0550
0240
0550
0650
0550
1554
1554
5555
6005
ENDCHAR
STARTCHAR Atilde
ENCODING 195
SWIDTH 798 0
DWIDTH 8 0
BBX 8 10 0 0
BITMAP
0510
0450
0240
0550
0650
0550
1554
1554
5555
6005
ENDCHAR
STARTCHAR Adieresis
ENCODING 196
SWIDTH 798 0
DWIDTH 8 0
BBX 8 11 0 0
BITMAP
0410
1144
0510
0240
0550
0650
0550
1554
1554
5555
6005
ENDCHAR
STARTCHAR Aring
ENCODING 197
SWIDTH 798 0
DWIDTH 8 0
BBX 8 11 0 0
BITMAP
0140
0140
0140
0240
0550
0650
0550
1554
1554
5555
6005
ENDCHAR
STARTCHAR AE
ENCODING 198
SWIDTH 1078 0
DWIDTH 11 0
BBX 11 8 0 0
BITMAP
0066A4
016550
015400
055550
0556A0
156400
156550
5555A4
ENDCHAR
STARTCHAR Ccedilla
ENCODING 199
SWIDTH 776 0
DWIDTH 8 0
BBX 7 11 0 -3
BITMAP
06A4
2554
5400
6000
6000
5400
2554
06A4
0000
0140
0140
ENDCHAR
STARTCHAR Egrave
ENCODING 200
SWIDTH 677 0
DWIDTH 7 0
BBX 7 10 0 0
BITMAP
0100
0140
56A4
5550
5000
5550
56A0
5000
5550
56A4
ENDCHAR
STARTCHAR Eacute
ENCODING 201
SWIDTH 677 0
DWIDTH 7 0
BBX 7 10 0 0
BITMAP
0140
0100
56A4
5550
5000
5550
56A0
5000
5550
56A4
ENDCHAR
STARTCHAR Ecircumflex
ENCODING 202
SWIDTH 677 0
DWIDTH 7 0
BBX 7 10 0 0
BITMAP
0540
0550
56A4
5550
5000
5550
56A0
5000
5550
56A4
ENDCHAR
STARTCHAR Edieresis
ENCODING 203
SWIDTH 677 0
DWIDTH 7 0
BBX 7 11 0 0
BITMAP
0450
1154
0450
56A4
5550
5000
5550
56A0
5000
5550
56A4
ENDCHAR
STARTCHAR Igrave
ENCODING 204
SWIDTH 262 0
DWIDTH 3 0
BBX 3 10 -1 0
BITMAP
50
14
14
14
14
14
14
14
14
14
ENDCHAR
STARTCHAR Iacute
ENCODING 205
SWIDTH 262 0
DWIDTH 3 0
BBX 3 10 0 0
BITMAP
14
14
50
50
50
50
50
50
50
50
ENDCHAR
STARTCHAR Icircumflex
ENCODING 206
SWIDTH 262 0
DWIDTH 3 0
BBX 4 10 -1 0
BITMAP
14
55
14
14
14
14
14
14
14
14
ENDCHAR
STARTCHAR Idieresis
ENCODING 207
SWIDTH 262 0
DWIDTH 3 0
BBX 5 11 -1 0
BITMAP
5140
5440
5140
1400
1400
1400
1400
1400
1400
1400
1400
ENDCHAR
STARTCHAR Eth
ENCODING 208
SWIDTH 856 0
DWIDTH 9 0
BBX 9 8 0 0
BITMAP
26A400
255900
140600
550540
AA0540
140600
255900
26A400
ENDCHAR
STARTCHAR Ntilde
ENCODING 209
SWIDTH 796 0
DWIDTH 8 0
BBX 8 10 0 0
BITMAP
0510
0450
5405
5505
5505
5545
5155
5055
5055
5015
ENDCHAR
STARTCHAR Ograve
ENCODING 210
SWIDTH 894 0
DWIDTH 9 0
BBX 9 10 0 0
BITMAP
010000
014000
06A400
255600
540540
600240
600240
540540
255600
06A400
ENDCHAR
STARTCHAR Oacute
ENCODING 211
SWIDTH 894 0
DWIDTH 9 0
BBX 9 10 0 0
BITMAP
005000
005000
06A400
255600
540540
600240
600240
540540
255600
06A400
ENDCHAR
STARTCHAR Ocircumflex
ENCODING 212
SWIDTH 894 0
DWIDTH 9 0
BBX 9 10 0 0
BITMAP
015000
055000
06A400
255600
540540
600240
600240
540540
255600
06A400
ENDCHAR
STARTCHAR Otilde
ENCODING 213
SWIDTH 894 0
DWIDTH 9 0
BBX 9 10 0 0
BITMAP
010400
045000
06A400
255600
540540
600240
600240
540540
255600
06A400
ENDCHAR
STARTCHAR Odieresis
ENCODING 214
SWIDTH 894 0
DWIDTH 9 0
BBX 9 11 0 0
BITMAP
051400
055400
051400
06A400
255600
540540
600240
600240
540540
255600
06A400
ENDCHAR
STARTCHAR multiply
ENCODING 215
SWIDTH 370 0
DWIDTH 4 0
BBX 3 3 0 0
BITMAP
54
54
04
ENDCHAR
STARTCHAR Oslash
ENCODING 216
SWIDTH 894 0
DWIDTH 9 0
BBX 9 8 0 0
BITMAP
069500
255900
542540
605640
654240
560540
195600
15A400
ENDCHAR
STARTCHAR Ugrave
ENCODING 217
SWIDTH 702 0
DWIDTH 7 0
BBX 7 10 0 0
BITMAP
0400
0500
5024
5024
5024
5024
5024
5454
2560
1A90
ENDCHAR
STARTCHAR Uacute
ENCODING 218
SWIDTH 702 0
DWIDTH 7 0
BBX 7 10 0 0
BITMAP
0040
0140
5024
5024
5024
5024
5024
5454
2560
1A90
ENDCHAR
STARTCHAR Ucircumflex
ENCODING 219
SWIDTH 702 0
DWIDTH 7 0
BBX 7 10 0 0
BITMAP
0540
1440
5024
5024
5024
5024
5024
5454
2560
1A90
ENDCHAR
STARTCHAR Udieresis
ENCODING 220
SWIDTH 702 0
DWIDTH 7 0
BBX 7 11 0 0
BITMAP
1450
1550
1450
5024
5024
5024
5024
5024
5454
2560
1A90
ENDCHAR
STARTCHAR Yacute
ENCODING 221
SWIDTH 769 0
DWIDTH 8 0
BBX 8 10 0 0
BITMAP
0050
0140
5415
1454
1550
0550
0140
0240
0240
0240
ENDCHAR
STARTCHAR Thorn
ENCODING 222
SWIDTH 743 0
DWIDTH 7 0
BBX 7 8 0 0
BITMAP
5000
5550
5554
5554
5554
5554
5550
5000
ENDCHAR
STARTCHAR germandbls
ENCODING 223
SWIDTH 424 0
DWIDTH 4 0
BBX 4 4 0 0
BITMAP
69
55
55
59
ENDCHAR
STARTCHAR agrave
ENCODING 224
SWIDTH 414 0
DWIDTH 4 0
BBX 4 6 0 0
BITMAP
10
00
18
24
55
55
ENDCHAR
STARTCHAR aacute
ENCODING 225
SWIDTH 414 0
DWIDTH 4 0
BBX 4 6 0 0
BITMAP
04
00
18
24
55
55
ENDCHAR
STARTCHAR acircumflex
ENCODING 226
SWIDTH 414 0
DWIDTH 4 0
BBX 4 6 0 0
BITMAP
14
00
18
24
55
55
ENDCHAR
STARTCHAR atilde
ENCODING 227
SWIDTH 414 0
DWIDTH 4 0
BBX 4 5 0 0
BITMAP
04
18
24
55
55
ENDCHAR
STARTCHAR adieresis
ENCODING 228
SWIDTH 414 0
DWIDTH 4 0
BBX 4 6 0 0
BITMAP
14
00
18
24
55
55
ENDCHAR
STARTCHAR aring
ENCODING 229
SWIDTH 414 0
DWIDTH 4 0
BBX 4 6 0 0
BITMAP
04
04
18
24
55
55
ENDCHAR
STARTCHAR ae
ENCODING 230
SWIDTH 593 0
DWIDTH 6 0
BBX 6 4 0 0
BITMAP
0690
1940
2540
6690
ENDCHAR
STARTCHAR ccedilla
ENCODING 231
SWIDTH 446 0
DWIDTH 4 0
BBX 4 6 0 -2
BITMAP
29
50
50
29
04
04
ENDCHAR
STARTCHAR egrave
ENCODING 232
SWIDTH 363 0
DWIDTH 4 0
BBX 4 6 0 0
BITMAP
10
00
69
54
54
69
ENDCHAR
STARTCHAR eacute
ENCODING 233
SWIDTH 363 0
DWIDTH 4 0
BBX 4 6 0 0
BITMAP
04
00
69
54
54
69
ENDCHAR
STARTCHAR ecircumflex
ENCODING 234
SWIDTH 363 0
DWIDTH 4 0
BBX 4 6 0 0
BITMAP
14
00
69
54
54
69
ENDCHAR
STARTCHAR edieresis
ENCODING 235
SWIDTH 363 0
DWIDTH 4 0
BBX 4 6 0 0
BITMAP
14
00
69
54
54
69
ENDCHAR
STARTCHAR igrave
ENCODING 236
SWIDTH 176 0
DWIDTH 2 0
BBX 2 6 0 0
BITMAP
40
00
50
50
50
50
ENDCHAR
STARTCHAR iacute
ENCODING 237
SWIDTH 176 0
DWIDTH 2 0
BBX 2 6 0 0
BITMAP
10
00
50
50
50
50
ENDCHAR
STARTCHAR icircumflex
ENCODING 238
SWIDTH 176 0
DWIDTH 2 0
BBX 2 6 0 0
BITMAP
50
00
50
50
50
50
ENDCHAR
STARTCHAR idieresis
ENCODING 239
SWIDTH 176 0
DWIDTH 2 0
BBX 2 6 0 0
BITMAP
50
00
50
50
50
50
ENDCHAR
STARTCHAR eth
ENCODING 240
SWIDTH 455 0
DWIDTH 5 0
BBX 4 4 0 0
BITMAP
69
01
51
69
ENDCHAR
STARTCHAR ntilde
ENCODING 241
SWIDTH 444 0
DWIDTH 4 0
BBX 4 5 0 0
BITMAP
04
62
66
56
56
ENDCHAR
STARTCHAR ograve
ENCODING 242
SWIDTH 494 0
DWIDTH 5 0
BBX 5 6 0 0
BITMAP
0400
0000
2A00
5140
5140
2A00
ENDCHAR
STARTCHAR oacute
ENCODING 243
SWIDTH 494 0
DWIDTH 5 0
BBX 5 6 0 0
BITMAP
0400
0000
2A00
5140
5140
2A00
ENDCHAR
STARTCHAR ocircumflex
ENCODING 244
SWIDTH 494 0
DWIDTH 5 0
BBX 5 6 0 0
BITMAP
1400
0000
2A00
5140
5140
2A00
ENDCHAR
STARTCHAR otilde
ENCODING 245
SWIDTH 494 0
DWIDTH 5 0
BBX 5 4 0 0
BITMAP
2A00
5140
5140
2A00
ENDCHAR
STARTCHAR odieresis
ENCODING 246
SWIDTH 494 0
DWIDTH 5 0
BBX 5 6 0 0
BITMAP
1500
0000
2A00
5140
5140
2A00
ENDCHAR
STARTCHAR divide
ENCODING 247
SWIDTH 418 0
DWIDTH 4 0
BBX 3 4 1 0
BITMAP
10
54
54
10
ENDCHAR
STARTCHAR oslash
ENCODING 248
SWIDTH 494 0
DWIDTH 5 0
BBX 5 4 0 0
BITMAP
2940
5540
5540
5A00
ENDCHAR
STARTCHAR ugrave
ENCODING 249
SWIDTH 400 0
DWIDTH 4 0
BBX 4 6 0 0
BITMAP
10
00
55
55
55
28
ENDCHAR
STARTCHAR uacute
ENCODING 250
SWIDTH 400 0
DWIDTH 4 0
BBX 4 6 0 0
BITMAP
04
00
55
55
55
28
ENDCHAR
STARTCHAR ucircumflex
ENCODING 251
SWIDTH 400 0
DWIDTH 4 0
BBX 4 6 0 0
BITMAP
14
00
55
55
55
28
ENDCHAR
STARTCHAR udieresis
ENCODING 252
SWIDTH 400 0
DWIDTH 4 0
BBX 4 6 0 0
BITMAP
14
00
55
55
55
28
ENDCHAR
STARTCHAR yacute
ENCODING 253
SWIDTH 422 0
DWIDTH 4 0
BBX 4 6 0 0
BITMAP
04
00
55
18
14
14
ENDCHAR
STARTCHAR thorn
ENCODING 254
SWIDTH 412 0
DWIDTH 4 0
BBX 4 4 0 0
BITMAP
54
55
55
54
ENDCHAR
STARTCHAR ydieresis
ENCODING 255
SWIDTH 422 0
DWIDTH 4 0
BBX 4 6 0 0
BITMAP
14
00
55
18
14
14
ENDCHAR
STARTCHAR Edotaccent
ENCODING 278
SWIDTH 677 0
DWIDTH 7 0
BBX 7 10 0 0
BITMAP
0140
0000
56A4
5550
5000
5550
56A0
5000
5550
56A4
ENDCHAR
STARTCHAR edotaccent
ENCODING 279
SWIDTH 363 0
DWIDTH 4 0
BBX 4 6 0 0
BITMAP
14
00
69
54
54
69
ENDCHAR
STARTCHAR dotlessi
ENCODING 305
SWIDTH 176 0
DWIDTH 2 0
BBX 2 4 0 0
BITMAP
50
50
50
50
ENDCHAR
STARTCHAR OE
ENCODING 338
SWIDTH 1221 0
DWIDTH 12 0
BBX 12 8 0 0
BITMAP
0690AA
255055
540000
600054
6000A9
540000
255055
0690AA
ENDCHAR
STARTCHAR oe
ENCODING 339
SWIDTH 637 0
DWIDTH 6 0
BBX 6 4 0 0
BITMAP
28A0
5050
5050
28A0
ENDCHAR
STARTCHAR Wcircumflex
ENCODING 372
SWIDTH 972 0
DWIDTH 10 0
BBX 10 10 0 0
BITMAP
015000
015400
609150
545140
555180
259640
195540
155900
055500
091500
ENDCHAR
STARTCHAR wcircumflex
ENCODING 373
SWIDTH 521 0
DWIDTH 5 0
BBX 5 6 0 0
BITMAP
0400
0000
5980
5640
6940
2640
ENDCHAR
STARTCHAR Ycircumflex
ENCODING 374
SWIDTH 769 0
DWIDTH 8 0
BBX 8 10 0 0
BITMAP
0540
0550
5415
1454
1550
0550
0140
0240
0240
0240
ENDCHAR
STARTCHAR ycircumflex
ENCODING 375
SWIDTH 422 0
DWIDTH 4 0
BBX 4 6 0 0
BITMAP
14
00
55
18
14
14
ENDCHAR
STARTCHAR Ydieresis
ENCODING 376
SWIDTH 769 0
DWIDTH 8 0
BBX 8 11 0 0
BITMAP
0450
1150
0450
5415
1454
1550
0550
0140
0240
0240
0240
ENDCHAR
STARTCHAR circumflex
ENCODING 710
SWIDTH 298 0
DWIDTH 3 0
BBX 1 1 1 5
BITMAP
40
ENDCHAR
STARTCHAR dotaccent
ENCODING 729
SWIDTH 212 0
DWIDTH 2 0
BBX 2 1 0 5
BITMAP
50
ENDCHAR
STARTCHAR ring
ENCODING 730
SWIDTH 212 0
DWIDTH 2 0
BBX 1 2 1 4
BITMAP
40
40
ENDCHAR
STARTCHAR tilde
ENCODING 732
SWIDTH 329 0
DWIDTH 3 0
BBX 1 1 2 4
BITMAP
40
ENDCHAR
STARTCHAR gravecomb
ENCODING 768
SWIDTH 0 0
DWIDTH 0 0
BBX 1 1 0 5
BITMAP
40
ENDCHAR
STARTCHAR acutecomb
ENCODING 769
SWIDTH 0 0
DWIDTH 0 0
BBX 1 1 0 5
BITMAP
40
ENDCHAR
STARTCHAR uni0302
ENCODING 770
SWIDTH 0 0
DWIDTH 0 0
BBX 1 1 1 5
BITMAP
40
ENDCHAR
STARTCHAR tildecomb
ENCODING 771
SWIDTH 0 0
DWIDTH 0 0
BBX 1 1 2 4
BITMAP
40
ENDCHAR
STARTCHAR uni0307
ENCODING 775
SWIDTH 0 0
DWIDTH 0 0
BBX 2 1 0 5
BITMAP
50
ENDCHAR
STARTCHAR uni0308
ENCODING 776
SWIDTH 0 0
DWIDTH 0 0
BBX 3 1 0 5
BITMAP
54
ENDCHAR
STARTCHAR uni030A
ENCODING 778
SWIDTH 0 0
DWIDTH 0 0
BBX 1 2 1 4
BITMAP
40
40
ENDCHAR
STARTCHAR uni0327
ENCODING 807
SWIDTH 0 0
DWIDTH 0 0
BBX 1 2 1 -2
BITMAP
40
40
ENDCHAR
STARTCHAR Wgrave
ENCODING 7808
SWIDTH 972 0
DWIDTH 10 0
BBX 10 10 0 0
BITMAP
004000
005000
609150
545140
555180
259640
195540
155900
055500
091500
ENDCHAR
STARTCHAR wgrave
ENCODING 7809
SWIDTH 521 0
DWIDTH 5 0
BBX 5 6 0 0
BITMAP
0400
0000
5980
5640
6940
2640
ENDCHAR
STARTCHAR Wacute
ENCODING 7810
SWIDTH 972 0
DWIDTH 10 0
BBX 10 10 0 0
BITMAP
005000
004000
609150
545140
555180
259640
195540
155900
055500
091500
ENDCHAR
STARTCHAR wacute
ENCODING 7811
SWIDTH 521 0
DWIDTH 5 0
BBX 5 6 0 0
BITMAP
0400
0000
5980
5640
6940
2640
ENDCHAR
STARTCHAR Wdieresis
ENCODING 7812
SWIDTH 972 0
DWIDTH 10 0
BBX 10 11 0 0
BITMAP
011400
045400
011400
609150
545140
555180
259640
195540
155900
055500
091500
ENDCHAR
STARTCHAR wdieresis
ENCODING 7813
SWIDTH 521 0
DWIDTH 5 0
BBX 5 6 0 0
BITMAP
1500
0000
5980
5640
6940
2640
ENDCHAR
STARTCHAR uni1E9E
ENCODING 7838
SWIDTH 784 0
DWIDTH 8 0
BBX 8 8 0 0
BITMAP
56A4
5554
5054
5154
5155
5015
5155
52A4
ENDCHAR
STARTCHAR Ygrave
ENCODING 7922
SWIDTH 769 0
DWIDTH 8 0
BBX 8 10 0 0
BITMAP
0100
0140
5415
1454
1550
0550
0140
0240
0240
0240
ENDCHAR
STARTCHAR ygrave
ENCODING 7923
SWIDTH 422 0
DWIDTH 4 0
BBX 4 6 0 0
BITMAP
04
00
55
18
14
14
ENDCHAR
STARTCHAR endash
ENCODING 8211
SWIDTH 507 0
DWIDTH 5 0
BBX 3 2 1 1
BITMAP
54
54
ENDCHAR
STARTCHAR emdash
ENCODING 8212
SWIDTH 552 0
DWIDTH 6 0
BBX 4 2 1 1
BITMAP
55
55
ENDCHAR
STARTCHAR quoteleft
ENCODING 8216
SWIDTH 146 0
DWIDTH 1 0
BBX 1 1 0 3
BITMAP
40
ENDCHAR
STARTCHAR quoteright
ENCODING 8217
SWIDTH 146 0
DWIDTH 1 0
BBX 2 1 0 3
BITMAP
50
ENDCHAR
STARTCHAR quotesinglbase
ENCODING 8218
SWIDTH 146 0
DWIDTH 1 0
BBX 2 1 0 -1
BITMAP
50
ENDCHAR
STARTCHAR quotedblleft
ENCODING 8220
SWIDTH 297 0
DWIDTH 3 0
BBX 3 1 0 3
BITMAP
54
ENDCHAR
STARTCHAR quotedblright
ENCODING 8221
SWIDTH 297 0
DWIDTH 3 0
BBX 3 1 0 3
BITMAP
54
ENDCHAR
STARTCHAR quotedblbase
ENCODING 8222
SWIDTH 297 0
DWIDTH 3 0
BBX 3 1 0 -1
BITMAP
54
ENDCHAR
STARTCHAR bullet
ENCODING 8226
SWIDTH 302 0
DWIDTH 3 0
BBX 3 3 0 1
BITMAP
10
44
10
ENDCHAR
STARTCHAR ellipsis
ENCODING 8230
SWIDTH 528 0
DWIDTH 5 0
BBX 5 1 0 0
BITMAP
5440
ENDCHAR
STARTCHAR guilsinglleft
ENCODING 8249
SWIDTH 178 0
DWIDTH 2 0
BBX 2 2 0 1
BITMAP
50
40
ENDCHAR
STARTCHAR guilsinglright
ENCODING 8250
SWIDTH 178 0
DWIDTH 2 0
BBX 1 2 0 1
BITMAP
40
40
ENDCHAR
STARTCHAR fraction
ENCODING 8260
SWIDTH 362 0
DWIDTH 4 0
BBX 4 4 0 0
BITMAP
05
14
10
50
ENDCHAR
STARTCHAR uni2074
ENCODING 8308
SWIDTH 204 0
DWIDTH 2 0
BBX 2 2 0 2
BITMAP
50
50
ENDCHAR
STARTCHAR Euro
ENCODING 8364
SWIDTH 462 0
DWIDTH 5 0
BBX 4 4 0 0
BITMAP
29
50
50
2A
ENDCHAR
STARTCHAR trademark
ENCODING 8482
SWIDTH 461 0
DWIDTH 5 0
BBX 5 2 0 2
BITMAP
A540
4540
ENDCHAR
STARTCHAR minus
ENCODING 8722
SWIDTH 420 0
DWIDTH 4 0
BBX 4 1 0 1
BITMAP
BE
ENDCHAR
STARTCHAR uni2215
ENCODING 8725
SWIDTH 278 0
DWIDTH 3 0
BBX 3 4 0 0
BITMAP
14
14
50
50
ENDCHAR
STARTCHAR .notdef
ENCODING -1
SWIDTH 500 0
DWIDTH 5 0
BBX 5 12 0 -3
BITMAP
6A40
8080
8080
8080
8080
8080
8080
8080
8080
8080
8080
6A40
ENDCHAR
STARTCHAR NULL
ENCODING -1
SWIDTH 600 0
DWIDTH 6 0
BBX 1 1 0 0
BITMAP
00
ENDCHAR
STARTCHAR acutecomb.case
ENCODING -1
SWIDTH 0 0
DWIDTH 0 0
BBX 3 2 0 8
BITMAP
14
50
ENDCHAR
STARTCHAR ampersand.case
ENCODING -1
SWIDTH 797 0
DWIDTH 8 0
BBX 7 8 0 0
BITMAP
0680
1550
1990
1650
5544
6194
5564
1A54
ENDCHAR
STARTCHAR asciicircum.case
ENCODING -1
SWIDTH 540 0
DWIDTH 5 0
BBX 5 4 0 4
BITMAP
0400
1500
1540
5140
ENDCHAR
STARTCHAR asciitilde.case
ENCODING -1
SWIDTH 640 0
DWIDTH 6 0
BBX 6 3 0 3
BITMAP
1400
5560
1590
ENDCHAR
STARTCHAR asterisk.case
ENCODING -1
SWIDTH 482 0
DWIDTH 5 0
BBX 4 4 0 4
BITMAP
08
51
15
10
ENDCHAR
STARTCHAR at.case
ENCODING -1
SWIDTH 915 0
DWIDTH 9 0
BBX 9 8 0 0
BITMAP
06A400
155600
555540
551540
551540
515040
140500
06A400
ENDCHAR
STARTCHAR backslash.case
ENCODING -1
SWIDTH 504 0
DWIDTH 5 0
BBX 5 9 0 -1
BITMAP
6000
5400
2400
1800
1500
0900
0600
0540
0240
ENDCHAR
STARTCHAR bar.case
ENCODING -1
SWIDTH 262 0
DWIDTH 3 0
BBX 2 9 0 -1
BITMAP
50
50
50
50
50
50
50
50
50
ENDCHAR
STARTCHAR braceleft.case
ENCODING -1
SWIDTH 504 0
DWIDTH 5 0
BBX 5 10 0 -1
BITMAP
1500
1500
1500
1500
1500
6500
1500
1500
1540
1500
ENDCHAR
STARTCHAR braceright.case
ENCODING -1
SWIDTH 506 0
DWIDTH 5 0
BBX 5 10 0 -1
BITMAP
1500
5500
1500
1500
1540
1500
1500
1500
1500
1500
ENDCHAR
STARTCHAR bracketleft.case
ENCODING -1
SWIDTH 453 0
DWIDTH 5 0
BBX 4 10 0 -1
BITMAP
55
55
55
50
50
50
50
50
56
55
ENDCHAR
STARTCHAR bracketright.case
ENCODING -1
SWIDTH 453 0
DWIDTH 5 0
BBX 4 10 0 -1
BITMAP
15
66
06
06
06
06
06
16
16
15
ENDCHAR
STARTCHAR brokenbar.case
ENCODING -1
SWIDTH 262 0
DWIDTH 3 0
BBX 2 9 0 0
BITMAP
50
50
50
50
00
50
50
50
50
ENDCHAR
STARTCHAR bullet.case
ENCODING -1
SWIDTH 503 0
DWIDTH 5 0
BBX 5 5 0 2
BITMAP
1500
5540
5140
5540
1500
ENDCHAR
STARTCHAR uni0327.case
ENCODING -1
SWIDTH 0 0
DWIDTH 0 0
BBX 2 2 1 -3
BITMAP
50
50
ENDCHAR
STARTCHAR cent.case
ENCODING -1
SWIDTH 577 0
DWIDTH 6 0
BBX 5 9 0 0
BITMAP
0500
0000
0540
1540
5400
5400
1540
0540
0500
ENDCHAR
STARTCHAR uni0302.case
ENCODING -1
SWIDTH 0 0
DWIDTH 0 0
BBX 4 2 1 8
BITMAP
54
45
ENDCHAR
STARTCHAR colon.case
ENCODING -1
SWIDTH 262 0
DWIDTH 3 0
BBX 2 5 0 0
BITMAP
50
50
00
50
50
ENDCHAR
STARTCHAR comma.case
ENCODING -1
SWIDTH 338 0
DWIDTH 3 0
BBX 3 3 0 -1
BITMAP
14
24
54
ENDCHAR
STARTCHAR copyright.case
ENCODING -1
SWIDTH 895 0
DWIDTH 9 0
BBX 9 8 0 0
BITMAP
06A400
240600
515140
550140
550140
515140
240600
06A400
ENDCHAR
STARTCHAR currency.case
ENCODING -1
SWIDTH 676 0
DWIDTH 7 0
BBX 7 6 0 0
BITMAP
1050
5550
1550
1550
5554
1010
ENDCHAR
STARTCHAR degree.case
ENCODING -1
SWIDTH 413 0
DWIDTH 4 0
BBX 4 4 0 4
BITMAP
29
55
55
14
ENDCHAR
STARTCHAR uni0308.case
ENCODING -1
SWIDTH 0 0
DWIDTH 0 0
BBX 5 3 0 8
BITMAP
1140
4540
1140
ENDCHAR
STARTCHAR divide.case
ENCODING -1
SWIDTH 618 0
DWIDTH 6 0
BBX 6 6 0 1
BITMAP
0100
0100
1550
6A90
0100
0100
ENDCHAR
STARTCHAR uni2215.case
ENCODING -1
SWIDTH 483 0
DWIDTH 5 0
BBX 5 8 0 0
BITMAP
0540
0600
0900
1500
1800
2400
5400
6000
ENDCHAR
STARTCHAR dollar.case
ENCODING -1
SWIDTH 660 0
DWIDTH 7 0
BBX 7 9 0 -1
BITMAP
0500
1550
5550
5500
1950
0150
5554
1550
0500
ENDCHAR
STARTCHAR eight.case
ENCODING -1
SWIDTH 561 0
DWIDTH 6 0
BBX 6 8 0 0
BITMAP
1A40
5580
6150
5940
5640
6150
5580
1A40
ENDCHAR
STARTCHAR ellipsis.case
ENCODING -1
SWIDTH 766 0
DWIDTH 8 0
BBX 8 2 0 0
BITMAP
5154
5255
ENDCHAR
STARTCHAR emdash.case
ENCODING -1
SWIDTH 790 0
DWIDTH 8 0
BBX 8 2 0 3
BITMAP
1554
6AA9
ENDCHAR
STARTCHAR endash.case
ENCODING -1
SWIDTH 721 0
DWIDTH 7 0
BBX 7 2 0 3
BITMAP
1554
6AA4
ENDCHAR
STARTCHAR equal.case
ENCODING -1
SWIDTH 618 0
DWIDTH 6 0
BBX 5 5 1 1
BITMAP
5540
5540
0000
5540
5540
ENDCHAR
STARTCHAR Euro.case
ENCODING -1
SWIDTH 767 0
DWIDTH 8 0
BBX 7 8 0 0
BITMAP
06A4
1954
1400
5540
AA80
1400
1954
06A4
ENDCHAR
STARTCHAR exclam.case
ENCODING -1
SWIDTH 262 0
DWIDTH 3 0
BBX 2 8 0 0
BITMAP
50
50
50
50
50
50
50
50
ENDCHAR
STARTCHAR exclamdown.case
ENCODING -1
SWIDTH 262 0
DWIDTH 3 0
BBX 2 8 0 -2
BITMAP
50
50
50
50
50
50
50
50
ENDCHAR
STARTCHAR five.case
ENCODING -1
SWIDTH 558 0
DWIDTH 6 0
BBX 6 8 0 0
BITMAP
6A80
1540
5000
5500
5640
1150
5580
1A40
ENDCHAR
STARTCHAR four.case
ENCODING -1
SWIDTH 585 0
DWIDTH 6 0
BBX 5 8 0 0
BITMAP
0540
0900
1500
1400
5640
5640
5640
0240
ENDCHAR
STARTCHAR uni2074.case
ENCODING -1
SWIDTH 312 0
DWIDTH 3 0
BBX 3 4 0 4
BITMAP
10
50
54
04
ENDCHAR
STARTCHAR fraction.case
ENCODING -1
SWIDTH 655 0
DWIDTH 7 0
BBX 6 8 0 0
BITMAP
0050
0050
0140
0100
0500
0400
1400
5000
ENDCHAR
STARTCHAR gravecomb.case
ENCODING -1
SWIDTH 0 0
DWIDTH 0 0
BBX 3 2 0 8
BITMAP
50
14
ENDCHAR
STARTCHAR greater.case
ENCODING -1
SWIDTH 677 0
DWIDTH 7 0
BBX 6 6 0 1
BITMAP
5400
5500
0550
0550
5500
5400
ENDCHAR
STARTCHAR guillemotleft.case
ENCODING -1
SWIDTH 666 0
DWIDTH 7 0
BBX 6 6 0 1
BITMAP
0410
1450
5450
5450
1450
0410
ENDCHAR
STARTCHAR guillemotright.case
ENCODING -1
SWIDTH 666 0
DWIDTH 7 0
BBX 6 6 0 1
BITMAP
4000
5050
5450
5450
5450
4040
ENDCHAR
STARTCHAR guilsinglleft.case
ENCODING -1
SWIDTH 338 0
DWIDTH 3 0
BBX 3 6 0 1
BITMAP
04
14
54
54
14
04
ENDCHAR
STARTCHAR guilsinglright.case
ENCODING -1
SWIDTH 338 0
DWIDTH 3 0
BBX 3 6 0 1
BITMAP
40
50
54
54
54
40
ENDCHAR
STARTCHAR hyphen.case
ENCODING -1
SWIDTH 445 0
DWIDTH 4 0
BBX 4 2 0 3
BITMAP
15
6A
ENDCHAR
STARTCHAR less.case
ENCODING -1
SWIDTH 677 0
DWIDTH 7 0
BBX 5 6 1 1
BITMAP
0140
0540
5500
5500
1540
0140
ENDCHAR
STARTCHAR logicalnot.case
ENCODING -1
SWIDTH 618 0
DWIDTH 6 0
BBX 6 4 0 1
BITMAP
1550
6A90
0050
0090
ENDCHAR
STARTCHAR uni00B5.case
ENCODING -1
SWIDTH 792 0
DWIDTH 8 0
BBX 8 10 0 -2
BITMAP
5024
5024
5024
5024
5024
5054
5565
5695
5000
5000
ENDCHAR
STARTCHAR minus.case
ENCODING -1
SWIDTH 618 0
DWIDTH 6 0
BBX 6 2 0 3
BITMAP
1550
6A90
ENDCHAR
STARTCHAR multiply.case
ENCODING -1
SWIDTH 580 0
DWIDTH 6 0
BBX 5 5 0 1
BITMAP
1100
2540
1500
5540
1040
ENDCHAR
STARTCHAR nine.case
ENCODING -1
SWIDTH 558 0
DWIDTH 6 0
BBX 6 8 0 0
BITMAP
1A40
5580
6150
5950
1550
1150
5580
1A40
ENDCHAR
STARTCHAR numbersign.case
ENCODING -1
SWIDTH 776 0
DWIDTH 8 0
BBX 6 8 1 0
BITMAP
2490
6550
5550
5550
5590
5590
5140
9240
ENDCHAR
STARTCHAR one.case
ENCODING -1
SWIDTH 378 0
DWIDTH 4 0
BBX 4 8 0 0
BITMAP
95
55
15
15
15
15
15
15
ENDCHAR
STARTCHAR onehalf.case
ENCODING -1
SWIDTH 735 0
DWIDTH 7 0
BBX 7 8 0 0
BITMAP
5414
1450
1440
0140
0164
0514
1454
1414
ENDCHAR
STARTCHAR onequarter.case
ENCODING -1
SWIDTH 722 0
DWIDTH 7 0
BBX 7 8 0 0
BITMAP
5414
1450
1440
0140
0120
0550
1454
1414
ENDCHAR
STARTCHAR uni00B9.case
ENCODING -1
SWIDTH 306 0
DWIDTH 3 0
BBX 3 3 0 5
BITMAP
54
14
14
ENDCHAR
STARTCHAR ordfeminine.case
ENCODING -1
SWIDTH 456 0
DWIDTH 5 0
BBX 3 4 1 4
BITMAP
60
64
54
04
ENDCHAR
STARTCHAR ordmasculine.case
ENCODING -1
SWIDTH 489 0
DWIDTH 5 0
BBX 5 4 0 4
BITMAP
2A00
5140
5540
1500
ENDCHAR
STARTCHAR paragraph.case
ENCODING -1
SWIDTH 893 0
DWIDTH 9 0
BBX 9 8 0 0
BITMAP
2AAA40
555500
605540
555540
155540
005540
005540
005540
ENDCHAR
STARTCHAR parenleft.case
ENCODING -1
SWIDTH 290 0
DWIDTH 3 0
BBX 3 9 0 -1
BITMAP
18
14
54
60
60
60
54
14
18
ENDCHAR
STARTCHAR parenright.case
ENCODING -1
SWIDTH 290 0
DWIDTH 3 0
BBX 3 9 0 0
BITMAP
90
60
54
24
24
24
54
60
90
ENDCHAR
STARTCHAR percent.case
ENCODING -1
SWIDTH 827 0
DWIDTH 8 0
BBX 8 8 0 0
BITMAP
2915
5514
5554
1550
0554
0555
1452
5429
ENDCHAR
STARTCHAR period.case
ENCODING -1
SWIDTH 262 0
DWIDTH 3 0
BBX 2 2 0 0
BITMAP
50
50
ENDCHAR
STARTCHAR periodcentered.case
ENCODING -1
SWIDTH 262 0
DWIDTH 3 0
BBX 2 2 0 3
BITMAP
50
50
ENDCHAR
STARTCHAR plus.case
ENCODING -1
SWIDTH 616 0
DWIDTH 6 0
BBX 6 5 0 1
BITMAP
0600
1650
6650
0600
0500
ENDCHAR
STARTCHAR plusminus.case
ENCODING -1
SWIDTH 618 0
DWIDTH 6 0
BBX 6 7 0 0
BITMAP
0600
1650
6650
0600
0500
1550
6A90
ENDCHAR
STARTCHAR question.case
ENCODING -1
SWIDTH 598 0
DWIDTH 6 0
BBX 6 8 0 0
BITMAP
1A40
5550
1150
0150
0540
0500
0500
0500
ENDCHAR
STARTCHAR questiondown.case
ENCODING -1
SWIDTH 598 0
DWIDTH 6 0
BBX 6 8 0 -2
BITMAP
0500
0500
0500
1500
5400
5440
5550
1A40
ENDCHAR
STARTCHAR quotedbl.case
ENCODING -1
SWIDTH 464 0
DWIDTH 5 0
BBX 5 3 0 5
BITMAP
6540
6540
5100
ENDCHAR
STARTCHAR quotedblbase.case
ENCODING -1
SWIDTH 464 0
DWIDTH 5 0
BBX 5 3 0 -1
BITMAP
6540
6140
1040
ENDCHAR
STARTCHAR quotedblleft.case
ENCODING -1
SWIDTH 464 0
DWIDTH 5 0
BBX 5 3 0 5
BITMAP
4100
5540
6540
ENDCHAR
STARTCHAR quotedblright.case
ENCODING -1
SWIDTH 464 0
DWIDTH 5 0
BBX 5 3 0 5
BITMAP
6540
6140
1040
ENDCHAR
STARTCHAR quoteleft.case
ENCODING -1
SWIDTH 212 0
DWIDTH 2 0
BBX 2 3 0 5
BITMAP
40
50
60
ENDCHAR
STARTCHAR quoteright.case
ENCODING -1
SWIDTH 212 0
DWIDTH 2 0
BBX 2 3 0 5
BITMAP
60
60
10
ENDCHAR
STARTCHAR quotesinglbase.case
ENCODING -1
SWIDTH 212 0
DWIDTH 2 0
BBX 2 3 0 -1
BITMAP
60
60
10
ENDCHAR
STARTCHAR quotesingle.case
ENCODING -1
SWIDTH 212 0
DWIDTH 2 0
BBX 2 3 0 5
BITMAP
60
60
50
ENDCHAR
STARTCHAR registered.case
ENCODING -1
SWIDTH 895 0
DWIDTH 9 0
BBX 9 8 0 0
BITMAP
06A400
240600
515140
525540
529140
522140
240600
06A400
ENDCHAR
STARTCHAR uni030A.case
ENCODING -1
SWIDTH 0 0
DWIDTH 0 0
BBX 3 3 0 8
BITMAP
10
44
10
ENDCHAR
STARTCHAR section.case
ENCODING -1
SWIDTH 645 0
DWIDTH 6 0
BBX 6 11 0 -2
BITMAP
0540
1A50
1500
1550
1550
5450
1940
0650
1590
5550
1540
ENDCHAR
STARTCHAR semicolon.case
ENCODING -1
SWIDTH 338 0
DWIDTH 3 0
BBX 3 6 0 -1
BITMAP
18
14
00
14
24
54
ENDCHAR
STARTCHAR seven.case
ENCODING -1
SWIDTH 505 0
DWIDTH 5 0
BBX 5 8 0 0
BITMAP
6A40
5540
0540
0600
0500
0900
1500
1800
ENDCHAR
STARTCHAR six.case
ENCODING -1
SWIDTH 558 0
DWIDTH 6 0
BBX 6 8 0 0
BITMAP
1A40
5580
6140
6500
6640
6150
5580
1A40
ENDCHAR
STARTCHAR slash.case
ENCODING -1
SWIDTH 504 0
DWIDTH 5 0
BBX 5 9 0 -1
BITMAP
0240
0540
0600
0900
1500
1800
2400
5400
6000
ENDCHAR
STARTCHAR uni00AD.case
ENCODING -1
SWIDTH 445 0
DWIDTH 4 0
BBX 4 2 0 3
BITMAP
15
6A
ENDCHAR
STARTCHAR sterling.case
ENCODING -1
SWIDTH 618 0
DWIDTH 6 0
BBX 6 8 0 0
BITMAP
1A40
5550
5400
5500
6A40
5400
5550
AAA0
ENDCHAR
STARTCHAR three.case
ENCODING -1
SWIDTH 558 0
DWIDTH 6 0
BBX 6 8 0 0
BITMAP
1A40
5580
1150
0140
0240
1150
5580
1A40
ENDCHAR
STARTCHAR threequarters.case
ENCODING -1
SWIDTH 722 0
DWIDTH 7 0
BBX 7 8 0 0
BITMAP
6414
0450
1440
1540
0120
0550
1454
1414
ENDCHAR
STARTCHAR uni00B3.case
ENCODING -1
SWIDTH 332 0
DWIDTH 3 0
BBX 3 4 0 4
BITMAP
64
04
14
14
ENDCHAR
STARTCHAR tildecomb.case
ENCODING -1
SWIDTH 0 0
DWIDTH 0 0
BBX 4 2 0 8
BITMAP
10
45
ENDCHAR
STARTCHAR trademark.case
ENCODING -1
SWIDTH 850 0
DWIDTH 9 0
BBX 8 4 0 4
BITMAP
A996
149A
1456
1442
ENDCHAR
STARTCHAR two.case
ENCODING -1
SWIDTH 558 0
DWIDTH 6 0
BBX 6 8 0 0
BITMAP
1A40
5580
1150
0240
0940
1500
1540
6A80
ENDCHAR
STARTCHAR uni00B2.case
ENCODING -1
SWIDTH 339 0
DWIDTH 3 0
BBX 3 4 0 4
BITMAP
64
14
54
14
ENDCHAR
STARTCHAR underscore.case
ENCODING -1
SWIDTH 667 0
DWIDTH 7 0
BBX 6 2 0 0
BITMAP
1550
6AA0
ENDCHAR
STARTCHAR yen.case
ENCODING -1
SWIDTH 769 0
DWIDTH 8 0
BBX 8 8 0 0
BITMAP
5415
1454
1550
0550
0540
0650
0650
0240
ENDCHAR
STARTCHAR zero.case
ENCODING -1
SWIDTH 558 0
DWIDTH 6 0
BBX 6 8 0 0
BITMAP
1A40
5580
6150
6150
6150
6150
5580
1A40
ENDCHAR
ENDFONT
